<?xml version="1.0" encoding="UTF-8"?>
<!DOCTYPE svg PUBLIC "-//W3C//DTD SVG 1.1//EN" "http://www.w3.org/Graphics/SVG/1.1/DTD/svg11.dtd">
<!-- Creator: CorelDRAW 2020 (64-Bit) -->
<svg xmlns="http://www.w3.org/2000/svg" xml:space="preserve" width="60.8848mm" height="12.4787mm" version="1.1" style="shape-rendering:geometricPrecision; text-rendering:geometricPrecision; image-rendering:optimizeQuality; fill-rule:evenodd; clip-rule:evenodd"
viewBox="0 0 1297.01 265.83"
 xmlns:xlink="http://www.w3.org/1999/xlink"
 xmlns:xodm="http://www.corel.com/coreldraw/odm/2003">
 <defs>
  <style type="text/css">
   <![CDATA[
    .fil0 {fill:#FEFEFE}
    .fil3 {fill:#FEFEFE;fill-rule:nonzero}
    .fil2 {fill:#1F1B20;fill-rule:nonzero}
    .fil1 {fill:#F97316;fill-rule:nonzero}
   ]]>
  </style>
   <clipPath id="id0">
    <path d="M-0 0l1297.01 0 0 191.01 -1297.01 0 0 -191.01z"/>
   </clipPath>
 </defs>
 <g id="Capa_x0020_1">
  <metadata id="CorelCorpID_0Corel-Layer"/>
  <g style="clip-path:url(#id0)">
   <image x="-0" y="0" width="1297.01" height="191.01" xlink:href="logo_Images\logo_ImgID1.jpg"/>
  </g>
  <path class="fil0" d="M23.43 11.46l35.74 0c11.24,0 28.02,-0.14 38.88,2.72 7.04,1.85 13.7,5.21 18.2,11.1 3.85,5.04 6.05,10.83 6.33,17.18 0.39,8.67 -1.31,19.82 -2.49,28.43l-6.75 49.39c-1.11,8.16 -2.69,19.97 -5.91,27.55 -2.32,5.47 -5.82,10.2 -10.68,13.66 -4.57,3.26 -9.76,5.31 -15.24,6.45 -6.99,1.46 -15.11,1.61 -22.24,1.61l-57.45 0 21.6 -158.09zm155.37 146.5l-2.52 11.59 -57.18 0 43.12 -158.09 69.62 0 2.66 158.09 -56.34 0 0.65 -11.59zm139.92 -101.29l-1.35 9.88 23.18 0 -5.98 43.79 -23.18 0 -8.09 59.2 -55.1 0 21.6 -158.09 81.23 0 -6.18 45.22 -26.13 0zm140.79 47.14c-1.38,10.11 -2.83,21.13 -5.33,31.01 -1.87,7.39 -5.47,13.97 -10.51,19.7 -5.33,6.07 -11.97,10.52 -19.45,13.52 -8.03,3.22 -16.61,4.54 -25.24,4.54 -8.12,0 -16.23,-1.22 -23.74,-4.38 -7.2,-3.03 -13.19,-7.78 -17.34,-14.42 -3.94,-6.3 -5.93,-13.3 -5.84,-20.73 0.13,-10.16 1.8,-21.47 3.17,-31.54l3.3 -24.13c1.38,-10.11 2.83,-21.13 5.34,-31.02 1.87,-7.39 5.47,-13.97 10.51,-19.7 5.33,-6.07 11.97,-10.52 19.45,-13.52 8.03,-3.22 16.61,-4.53 25.23,-4.53 8.12,0 16.23,1.22 23.74,4.38 7.2,3.03 13.19,7.78 17.34,14.42 3.93,6.3 5.93,13.3 5.84,20.73 -0.13,10.16 -1.8,21.46 -3.17,31.54l-3.3 24.13zm117.83 -14.61c0.11,0.14 0.22,0.29 0.32,0.43 2.62,3.65 4.69,7.83 5.19,12.34 0.68,6.04 -1.09,16.87 -1.93,22.96l-6.09 44.6 -101.65 0 21.6 -158.09 34.21 0c11.23,0 26.83,-0.2 37.78,2.19 8.5,1.86 15.16,6.76 19.58,14.25 5.35,9.07 4.87,21.65 3.5,31.72 -1.17,8.56 -3.42,19.92 -9.3,26.59 -0.98,1.12 -2.06,2.11 -3.21,3zm137.06 -12.3l-12.66 92.65 -38.18 0 -0.48 -2.27c-0.6,0.36 -1.21,0.7 -1.84,1.03 -5.68,2.97 -11.88,4.27 -18.26,4.27 -7.65,0 -14.91,-1.79 -21.51,-5.66 -6.04,-3.54 -11.11,-8.3 -14.33,-14.58 -2.83,-5.53 -4.36,-11.45 -4.44,-17.66 -0.09,-7.49 0.97,-15.65 1.99,-23.07l5.73 -41.9c1.35,-9.9 3.15,-21.88 6.73,-31.23 3.43,-8.96 10.59,-15.73 18.47,-20.88 9.95,-6.5 21.44,-8.99 33.2,-8.99 10.89,0 22.1,1.93 31.33,8.04 7.61,5.04 13.69,11.86 15.75,20.94 2.06,9.11 1.08,20.34 -0.17,29.52l-1.34 9.79zm71.83 47.43l22.81 0 -6.18 45.22 -77.91 0 21.6 -158.09 55.1 0 -15.42 112.87zm144 -20.52c-1.38,10.1 -2.82,21.13 -5.33,31.02 -1.87,7.39 -5.47,13.97 -10.51,19.7 -5.33,6.07 -11.97,10.52 -19.45,13.52 -8.03,3.22 -16.61,4.54 -25.24,4.54 -8.12,0 -16.23,-1.22 -23.74,-4.38 -7.2,-3.03 -13.19,-7.78 -17.34,-14.42 -3.94,-6.3 -5.93,-13.3 -5.84,-20.73 0.13,-10.16 1.8,-21.46 3.17,-31.54l3.3 -24.13c1.38,-10.1 2.82,-21.13 5.33,-31.02 1.87,-7.39 5.47,-13.97 10.51,-19.7 5.33,-6.07 11.97,-10.52 19.45,-13.52 8.03,-3.22 16.61,-4.53 25.23,-4.53 8.12,0 16.23,1.22 23.75,4.38 7.2,3.03 13.19,7.78 17.34,14.42 3.94,6.3 5.93,13.3 5.84,20.73 -0.13,10.16 -1.8,21.46 -3.17,31.54l-3.3 24.13zm119.66 -18.31c1.36,1.36 2.56,2.9 3.55,4.63 4.3,7.58 4.07,17.47 2.92,25.84l-1.79 13.08c-1.11,8.11 -3.1,17.52 -7.48,24.55 -3.91,6.27 -9.53,10.69 -16.55,13 -8.95,2.95 -23.77,2.95 -33.19,2.95l-53.46 0 21.6 -158.09 45.09 0c9.19,0 20.34,0.38 29.17,3.08 8.05,2.46 14.26,7.58 18.32,14.94 5.02,9.11 4.36,21.81 3,31.78 -1.03,7.57 -3.19,16.26 -8.62,21.94 -0.79,0.83 -1.65,1.6 -2.57,2.3zm70.89 72.45l-2.52 11.6 -57.18 0 43.12 -158.09 69.62 0 2.66 158.09 -56.34 0 0.64 -11.6zm130.67 -33.62l22.81 0 -6.18 45.22 -77.91 0 21.6 -158.09 55.1 0 -15.42 112.87z"/>
  <path class="fil1" d="M30.87 19.98l28.3 0c18.25,0 30.49,0.8 36.71,2.44 6.21,1.63 10.75,4.31 13.59,8.02 2.84,3.72 4.39,7.85 4.59,12.39 0.2,4.58 -0.59,13.52 -2.42,26.9l-6.75 49.39c-1.73,12.66 -3.5,21.13 -5.31,25.38 -1.81,4.28 -4.42,7.64 -7.78,10.05 -3.4,2.41 -7.39,4.07 -12.04,5.05 -4.61,0.95 -11.45,1.43 -20.49,1.43l-47.68 0 19.27 -141.05zm34.61 24.07l-12.69 92.9c5.36,0 8.82,-1.07 10.34,-3.18 1.55,-2.14 2.95,-7.91 4.24,-17.33l7.5 -54.86c0.87,-6.39 1.22,-10.49 1.07,-12.3 -0.18,-1.81 -0.92,-3.12 -2.31,-3.95 -1.35,-0.86 -4.06,-1.28 -8.14,-1.28z"/>
  <path id="1" class="fil1" d="M223.46 19.98l2.37 141.05 -38.67 0 1.41 -25.32 -13.65 0 -5.51 25.32 -39.16 0 38.47 -141.05 54.73 0zm-32.49 90.76c0.37,-15.99 1.18,-35.78 2.38,-59.41 -7.44,27.1 -12.51,46.9 -15.23,59.41l12.85 0z"/>
  <polygon id="2" class="fil1" points="277.23,19.98 341.26,19.98 337.41,48.15 311.28,48.15 307.6,75.08 330.78,75.08 327.13,101.83 303.95,101.83 295.86,161.03 257.96,161.03 "/>
  <path id="3" class="fil1" d="M451.07 102.66c-1.94,14.17 -3.64,24.19 -5.15,30.08 -1.48,5.91 -4.36,11.29 -8.65,16.17 -4.28,4.87 -9.7,8.62 -16.22,11.23 -6.52,2.62 -13.88,3.92 -22.06,3.92 -7.79,0 -14.58,-1.25 -20.44,-3.72 -5.86,-2.47 -10.35,-6.15 -13.42,-11.08 -3.1,-4.93 -4.6,-10.31 -4.54,-16.11 0.09,-5.82 1.11,-15.99 3.09,-30.49l3.3 -24.13c1.94,-14.18 3.64,-24.19 5.15,-30.08 1.48,-5.91 4.36,-11.29 8.65,-16.17 4.28,-4.87 9.7,-8.62 16.22,-11.24 6.52,-2.61 13.87,-3.92 22.06,-3.92 7.79,0 14.58,1.25 20.44,3.72 5.86,2.47 10.35,6.15 13.42,11.08 3.1,4.93 4.6,10.31 4.54,16.11 -0.09,5.82 -1.11,15.99 -3.09,30.49l-3.3 24.13zm-31.57 -46.33c0.89,-6.54 1.1,-10.73 0.61,-12.57 -0.49,-1.81 -1.86,-2.74 -4.13,-2.74 -1.93,0 -3.5,0.74 -4.75,2.23 -1.21,1.45 -2.33,5.82 -3.32,13.08l-8.99 65.83c-1.12,8.17 -1.47,13.22 -1.06,15.12 0.41,1.93 1.84,2.88 4.3,2.88 2.51,0 4.29,-1.1 5.3,-3.3 1.01,-2.2 2.06,-7.46 3.19,-15.75l8.85 -64.79z"/>
  <path id="4" class="fil1" d="M502.22 19.98l26.77 0c17.85,0 29.84,0.65 35.97,1.99 6.14,1.34 10.82,4.75 14.06,10.25 3.24,5.47 4.03,14.23 2.39,26.24 -1.5,10.97 -3.92,18.34 -7.25,22.11 -3.31,3.77 -9.17,6.03 -17.54,6.77 7.23,1.81 11.96,4.22 14.12,7.25 2.17,3 3.38,5.8 3.65,8.32 0.3,2.53 -0.35,9.48 -1.9,20.86l-5.09 37.24 -35.14 0 6.41 -46.93c1.03,-7.55 1.06,-12.22 0.08,-14.03 -0.95,-1.81 -4.01,-2.7 -9.2,-2.7l-8.7 63.66 -37.9 0 19.27 -141.05zm34.61 24.07l-4.29 31.38c4.23,0 7.25,-0.56 9.09,-1.69 1.84,-1.13 3.2,-4.81 4.05,-11.03l1.06 -7.76c0.61,-4.49 0.19,-7.43 -1.25,-8.83 -1.43,-1.4 -4.35,-2.08 -8.67,-2.08z"/>
  <path id="5" class="fil2" d="M706.46 72.05l-37.9 0 1.75 -12.81c1.1,-8.08 1.46,-13.14 1.03,-15.16 -0.43,-2.05 -1.97,-3.06 -4.61,-3.06 -2.27,0 -3.95,0.86 -5.02,2.62 -1.06,1.72 -2.07,6.21 -3.06,13.4l-9.24 67.64c-0.86,6.3 -1.04,10.49 -0.48,12.48 0.55,1.99 2.04,3 4.49,3 2.7,0 4.66,-1.13 5.95,-3.39 1.26,-2.26 2.36,-6.69 3.25,-13.25l2.28 -16.7 -7.36 0 2.92 -21.4 44.15 0 -10.33 75.6 -23.82 0 -2.12 -10.1c-3.17,4.37 -6.87,7.64 -11.06,9.84 -4.23,2.2 -9,3.3 -14.31,3.3 -6.35,0 -12.06,-1.49 -17.2,-4.49 -5.11,-3 -8.81,-6.68 -11.05,-11.11 -2.28,-4.4 -3.43,-9.03 -3.5,-13.88 -0.04,-4.84 0.58,-12.13 1.91,-21.81l5.73 -41.9c1.84,-13.46 3.91,-23.24 6.25,-29.33 2.34,-6.12 7.4,-11.71 15.17,-16.79 7.78,-5.08 17.29,-7.61 28.54,-7.61 11.07,0 19.94,2.2 26.63,6.63 6.69,4.43 10.76,9.66 12.14,15.72 1.38,6.09 1.28,14.89 -0.31,26.48l-0.83 6.09z"/>
  <polygon id="6" class="fil2" points="791.88,19.98 776.46,132.85 799.27,132.85 795.42,161.03 734.71,161.03 753.98,19.98 "/>
  <path id="7" class="fil2" d="M921.78 102.66c-1.94,14.17 -3.64,24.19 -5.15,30.08 -1.48,5.91 -4.36,11.29 -8.65,16.17 -4.28,4.87 -9.7,8.62 -16.22,11.23 -6.52,2.62 -13.88,3.92 -22.06,3.92 -7.79,0 -14.58,-1.25 -20.43,-3.72 -5.86,-2.47 -10.35,-6.15 -13.42,-11.08 -3.1,-4.93 -4.6,-10.31 -4.55,-16.11 0.09,-5.82 1.11,-15.99 3.1,-30.49l3.3 -24.13c1.94,-14.18 3.64,-24.19 5.15,-30.08 1.48,-5.91 4.36,-11.29 8.65,-16.17 4.28,-4.87 9.7,-8.62 16.22,-11.24 6.52,-2.61 13.88,-3.92 22.06,-3.92 7.79,0 14.58,1.25 20.44,3.72 5.86,2.47 10.35,6.15 13.42,11.08 3.1,4.93 4.6,10.31 4.54,16.11 -0.09,5.82 -1.11,15.99 -3.1,30.49l-3.3 24.13zm-31.57 -46.33c0.89,-6.54 1.1,-10.73 0.62,-12.57 -0.49,-1.81 -1.87,-2.74 -4.13,-2.74 -1.93,0 -3.5,0.74 -4.75,2.23 -1.21,1.45 -2.33,5.82 -3.32,13.08l-9 65.83c-1.12,8.17 -1.47,13.22 -1.05,15.12 0.41,1.93 1.84,2.88 4.29,2.88 2.52,0 4.29,-1.1 5.3,-3.3 1.01,-2.2 2.06,-7.46 3.2,-15.75l8.85 -64.79z"/>
  <path id="8" class="fil2" d="M972.93 19.98l37.65 0c11.9,0 20.79,0.89 26.68,2.71 5.89,1.78 10.33,5.44 13.35,10.91 3.02,5.5 3.69,14.32 2.02,26.51 -1.12,8.23 -3.23,13.97 -6.34,17.21 -3.11,3.27 -8.73,5.73 -16.81,7.49 8.51,1.93 14.02,5.11 16.54,9.54 2.52,4.46 3.15,11.26 1.89,20.48l-1.79 13.08c-1.3,9.54 -3.4,16.58 -6.27,21.19 -2.87,4.58 -6.85,7.73 -11.99,9.42 -5.14,1.69 -15.31,2.53 -30.52,2.53l-43.69 0 19.27 -141.05zm34.61 24.07l-4.29 31.38c1.6,-0.06 2.83,-0.09 3.72,-0.09 3.62,0 6.07,-0.89 7.29,-2.64 1.25,-1.78 2.44,-6.87 3.58,-15.22 0.6,-4.43 0.63,-7.52 0.04,-9.3 -0.59,-1.75 -1.51,-2.88 -2.76,-3.36 -1.26,-0.45 -3.8,-0.71 -7.59,-0.77zm-7.29 53.32l-5.41 39.58c5.24,-0.18 8.69,-0.98 10.33,-2.44 1.64,-1.46 2.84,-5.05 3.62,-10.76l1.8 -13.19c0.83,-6.06 0.68,-9.72 -0.42,-11.03 -1.11,-1.28 -4.42,-1.99 -9.91,-2.17z"/>
  <path id="9" class="fil2" d="M1165.43 19.98l2.37 141.05 -38.67 0 1.41 -25.32 -13.65 0 -5.51 25.32 -39.16 0 38.47 -141.05 54.74 0zm-32.49 90.76c0.38,-15.99 1.18,-35.78 2.38,-59.41 -7.45,27.1 -12.51,46.9 -15.23,59.41l12.85 0z"/>
  <polygon id="10" class="fil2" points="1257.1,19.98 1241.68,132.85 1264.49,132.85 1260.64,161.03 1199.93,161.03 1219.2,19.98 "/>
  <path class="fil3" d="M104.65 248.15c2.59,0 5.43,-0.78 7.76,-1.55l-1.38 -5.35c-1.38,0.52 -3.28,1.12 -4.74,1.12 -4.83,0 -6.47,-2.93 -6.47,-8.11l0 -23.29 11.3 0 0 -5.78 -11.3 0 0 -11.73 -5.95 0 -0.86 11.73 -6.55 0.43 0 5.35 6.21 0 0 23.2c0,8.28 3.02,13.97 11.99,13.97z"/>
  <path id="1" class="fil3" d="M127.24 247.12l8.28 0 5.86 -22.42c1.12,-3.97 1.98,-7.93 2.93,-12.16l0.35 0c1.04,4.23 1.81,8.11 2.85,12.07l6.04 22.51 8.62 0 11.21 -41.91 -6.73 0 -6.12 24.23c-0.86,3.97 -1.64,7.76 -2.59,11.64l-0.35 0c-0.95,-3.88 -1.9,-7.68 -2.93,-11.64l-6.55 -24.23 -6.9 0 -6.47 24.23c-1.04,3.88 -1.9,7.76 -2.85,11.64l-0.35 0c-0.78,-3.88 -1.55,-7.68 -2.5,-11.64l-6.21 -24.23 -7.24 0 11.64 41.91z"/>
  <path id="2" class="fil3" d="M198.48 248.15c10.26,0 19.4,-8.02 19.4,-21.91 0,-14.06 -9.14,-22.08 -19.4,-22.08 -10.26,0 -19.4,8.02 -19.4,22.08 0,13.89 9.14,21.91 19.4,21.91zm0 -5.86c-7.16,0 -12.07,-6.47 -12.07,-16.04 0,-9.66 4.92,-16.21 12.07,-16.21 7.25,0 12.07,6.55 12.07,16.21 0,9.57 -4.83,16.04 -12.07,16.04z"/>
  <path id="3" class="fil3" d="M224.61 265.83c8.37,0 11.47,-5.43 11.47,-13.97l0 -46.66 -7.07 0 0 46.66c0,5.09 -1.04,8.19 -5.17,8.19 -1.47,0 -2.93,-0.35 -3.97,-0.69l-1.47 5.35c1.47,0.6 3.62,1.12 6.21,1.12zm8.02 -69.25c2.67,0 4.83,-1.9 4.83,-4.57 0,-2.76 -2.16,-4.57 -4.83,-4.57 -2.76,0 -4.92,1.81 -4.92,4.57 0,2.67 2.16,4.57 4.92,4.57z"/>
  <path id="4" class="fil3" d="M267.22 248.15c5.69,0 10.18,-1.98 13.8,-4.31l-2.5 -4.66c-3.1,1.99 -6.47,3.28 -10.43,3.28 -8.02,0 -13.45,-5.69 -13.97,-14.58l28.29 0c0.17,-1.04 0.26,-2.59 0.26,-4.05 0,-11.99 -6.04,-19.66 -16.73,-19.66 -9.57,0 -18.8,8.37 -18.8,22.08 0,13.71 8.88,21.91 20.09,21.91zm-13.19 -25.35c0.86,-8.28 6.21,-13.02 12.07,-13.02 6.55,0 10.35,4.57 10.35,13.02l-22.42 0z"/>
  <path id="5" class="fil3" d="M310.25 247.12l7.07 0 0 -30.36c3.88,-4.31 7.42,-6.47 10.52,-6.47 5.35,0 7.85,3.36 7.85,11.21l0 25.61 7.07 0 0 -30.36c3.88,-4.31 7.25,-6.47 10.52,-6.47 5.26,0 7.76,3.36 7.76,11.21l0 25.61 7.07 0 0 -26.56c0,-10.69 -4.14,-16.39 -12.76,-16.39 -5.09,0 -9.4,3.28 -13.8,8.02 -1.72,-5 -5.17,-8.02 -11.55,-8.02 -5,0 -9.4,3.1 -13.02,7.07l-0.26 0 -0.6 -6.04 -5.86 0 0 41.91z"/>
  <path id="6" class="fil3" d="M391.4 248.15c5.26,0 9.92,-2.76 13.89,-6.04l0.26 0 0.6 5 5.86 0 0 -25.7c0,-10.44 -4.31,-17.25 -14.58,-17.25 -6.73,0 -12.59,2.93 -16.47,5.43l2.76 4.92c3.28,-2.24 7.68,-4.48 12.5,-4.48 6.9,0 8.62,5.17 8.62,10.52 -17.85,1.98 -25.7,6.55 -25.7,15.7 0,7.5 5.26,11.9 12.25,11.9zm2.07 -5.69c-4.14,0 -7.42,-1.98 -7.42,-6.73 0,-5.35 4.83,-8.8 18.8,-10.52l0 11.64c-4.05,3.62 -7.33,5.61 -11.38,5.61z"/>
  <path id="7" class="fil3" d="M436.16 248.15c9.92,0 15.35,-5.69 15.35,-12.5 0,-7.94 -6.73,-10.44 -12.76,-12.68 -4.74,-1.81 -9.32,-3.28 -9.32,-7.24 0,-3.19 2.42,-6.04 7.68,-6.04 3.71,0 6.73,1.55 9.57,3.71l3.36 -4.48c-3.19,-2.59 -7.76,-4.74 -13.02,-4.74 -9.06,0 -14.4,5.17 -14.4,11.9 0,7.07 6.55,9.92 12.5,12.07 4.57,1.72 9.57,3.62 9.57,7.93 0,3.62 -2.76,6.55 -8.28,6.55 -5,0 -8.71,-2.07 -12.33,-5l-3.53 4.74c3.97,3.28 9.66,5.78 15.61,5.78z"/>
  <polygon id="8" class="fil3" points="456.95,247.12 488.69,247.12 488.69,241.34 465.92,241.34 488,209 488,205.2 459.36,205.2 459.36,210.98 479.03,210.98 456.95,243.32 "/>
  <path id="9" class="fil3" d="M498.35 265.14c8.45,0 12.76,-6.29 15.7,-14.58l15.78 -45.36 -6.9 0 -7.5 23.2c-1.12,3.71 -2.33,8.02 -3.53,11.81l-0.35 0c-1.3,-3.88 -2.76,-8.19 -4.05,-11.81l-8.54 -23.2 -7.33 0 16.82 42 -0.95 3.11c-1.73,5.17 -4.74,8.97 -9.49,8.97 -1.04,0 -2.33,-0.35 -3.19,-0.6l-1.38 5.6c1.38,0.52 3.02,0.86 4.92,0.86z"/>
  <path id="10" class="fil3" d="M537.93 247.12l7.07 0 0 -30.36c4.23,-4.23 7.16,-6.47 11.47,-6.47 5.52,0 7.93,3.36 7.93,11.21l0 25.61 7.07 0 0 -26.56c0,-10.69 -3.97,-16.39 -12.76,-16.39 -5.78,0 -10.09,3.1 -14.06,7.07l-0.26 0 -0.6 -6.04 -5.86 0 0 41.91z"/>
  <path id="11" class="fil3" d="M585.8 265.14c8.45,0 12.76,-6.29 15.7,-14.58l15.78 -45.36 -6.9 0 -7.5 23.2c-1.12,3.71 -2.33,8.02 -3.53,11.81l-0.35 0c-1.3,-3.88 -2.76,-8.19 -4.05,-11.81l-8.54 -23.2 -7.33 0 16.82 42 -0.95 3.11c-1.73,5.17 -4.74,8.97 -9.49,8.97 -1.04,0 -2.33,-0.35 -3.19,-0.6l-1.38 5.6c1.38,0.52 3.02,0.86 4.92,0.86z"/>
  <polygon id="12" class="fil3" points="638.23,247.12 669.97,247.12 669.97,241.34 647.2,241.34 669.28,209 669.28,205.2 640.65,205.2 640.65,210.98 660.31,210.98 638.23,243.32 "/>
  <path id="13" class="fil3" d="M686.96 248.15c5.26,0 9.92,-2.76 13.89,-6.04l0.26 0 0.6 5 5.86 0 0 -25.7c0,-10.44 -4.31,-17.25 -14.58,-17.25 -6.73,0 -12.59,2.93 -16.47,5.43l2.76 4.92c3.28,-2.24 7.68,-4.48 12.5,-4.48 6.9,0 8.62,5.17 8.62,10.52 -17.85,1.98 -25.7,6.55 -25.7,15.7 0,7.5 5.26,11.9 12.25,11.9zm2.07 -5.69c-4.14,0 -7.42,-1.98 -7.42,-6.73 0,-5.35 4.83,-8.8 18.8,-10.52l0 11.64c-4.05,3.62 -7.33,5.61 -11.38,5.61z"/>
  <path id="14" class="fil3" d="M727.41 247.12l8.28 0 5.86 -22.42c1.12,-3.97 1.98,-7.93 2.93,-12.16l0.35 0c1.04,4.23 1.81,8.11 2.85,12.07l6.04 22.51 8.62 0 11.21 -41.91 -6.73 0 -6.12 24.23c-0.86,3.97 -1.64,7.76 -2.59,11.64l-0.35 0c-0.95,-3.88 -1.9,-7.68 -2.93,-11.64l-6.55 -24.23 -6.9 0 -6.47 24.23c-1.04,3.88 -1.9,7.76 -2.85,11.64l-0.35 0c-0.78,-3.88 -1.55,-7.68 -2.5,-11.64l-6.21 -24.23 -7.24 0 11.64 41.91z"/>
  <path id="15" class="fil3" d="M793.64 248.15c9.92,0 15.35,-5.69 15.35,-12.5 0,-7.94 -6.73,-10.44 -12.76,-12.68 -4.74,-1.81 -9.32,-3.28 -9.32,-7.24 0,-3.19 2.42,-6.04 7.68,-6.04 3.71,0 6.73,1.55 9.57,3.71l3.36 -4.48c-3.19,-2.59 -7.76,-4.74 -13.02,-4.74 -9.06,0 -14.4,5.17 -14.4,11.9 0,7.07 6.55,9.92 12.5,12.07 4.57,1.72 9.57,3.62 9.57,7.93 0,3.62 -2.76,6.55 -8.28,6.55 -5,0 -8.71,-2.07 -12.33,-5l-3.53 4.74c3.97,3.28 9.66,5.78 15.61,5.78z"/>
  <polygon id="16" class="fil3" points="814.43,247.12 846.16,247.12 846.16,241.34 823.39,241.34 845.47,209 845.47,205.2 816.84,205.2 816.84,210.98 836.5,210.98 814.43,243.32 "/>
  <path id="17" class="fil3" d="M871.6 248.15c5.69,0 10.18,-1.98 13.8,-4.31l-2.5 -4.66c-3.1,1.99 -6.47,3.28 -10.43,3.28 -8.02,0 -13.45,-5.69 -13.97,-14.58l28.29 0c0.17,-1.04 0.26,-2.59 0.26,-4.05 0,-11.99 -6.04,-19.66 -16.73,-19.66 -9.57,0 -18.8,8.37 -18.8,22.08 0,13.71 8.88,21.91 20.09,21.91zm-13.19 -25.35c0.86,-8.28 6.21,-13.02 12.07,-13.02 6.55,0 10.35,4.57 10.35,13.02l-22.42 0z"/>
  <path id="18" class="fil3" d="M921.28 247.12l8.28 0 5.86 -22.42c1.12,-3.97 1.98,-7.93 2.93,-12.16l0.35 0c1.04,4.23 1.81,8.11 2.85,12.07l6.04 22.51 8.62 0 11.21 -41.91 -6.73 0 -6.12 24.23c-0.86,3.97 -1.64,7.76 -2.59,11.64l-0.35 0c-0.95,-3.88 -1.9,-7.68 -2.93,-11.64l-6.55 -24.23 -6.9 0 -6.47 24.23c-1.04,3.88 -1.9,7.76 -2.85,11.64l-0.35 0c-0.78,-3.88 -1.55,-7.68 -2.5,-11.64l-6.21 -24.23 -7.24 0 11.64 41.91z"/>
  <path id="19" class="fil3" d="M993.81 247.12l7.07 0 0 -26.91c2.85,-7.07 7.07,-9.66 10.61,-9.66 1.73,0 2.67,0.26 4.05,0.69l1.38 -6.21c-1.38,-0.6 -2.67,-0.86 -4.48,-0.86 -4.74,0 -9.06,3.36 -11.9,8.62l-0.26 0 -0.6 -7.59 -5.86 0 0 41.91z"/>
  <path id="20" class="fil3" d="M1035.98 248.15c5.78,0 9.92,-3.02 13.8,-7.59l0.26 0 0.6 6.55 5.86 0 0 -41.91 -7.07 0 0 29.75c-3.97,4.91 -6.99,7.07 -11.3,7.07 -5.52,0 -7.85,-3.36 -7.85,-11.21l0 -25.61 -7.16 0 0 26.56c0,10.69 3.97,16.39 12.85,16.39z"/>
  <path id="21" class="fil3" d="M1087.21 248.15c5,0 9.74,-1.98 13.54,-5.35l-3.11 -4.74c-2.59,2.33 -5.95,4.23 -9.83,4.23 -7.68,0 -12.94,-6.47 -12.94,-16.04 0,-9.66 5.52,-16.21 13.11,-16.21 3.36,0 5.95,1.55 8.37,3.71l3.62 -4.66c-2.93,-2.67 -6.73,-4.92 -12.24,-4.92 -10.78,0 -20.18,8.02 -20.18,22.08 0,13.89 8.54,21.91 19.66,21.91z"/>
  <path id="22" class="fil3" d="M1109.98 247.12l7.07 0 0 -30.36c4.23,-4.23 7.16,-6.47 11.47,-6.47 5.52,0 7.93,3.36 7.93,11.21l0 25.61 7.07 0 0 -26.56c0,-10.69 -3.97,-16.39 -12.76,-16.39 -5.78,0 -10,3.1 -13.97,6.9l0.26 -8.63 0 -16.73 -7.07 0 0 61.41z"/>
  <path id="23" class="fil3" d="M1169.14 248.15c5.78,0 9.92,-3.02 13.8,-7.59l0.26 0 0.6 6.55 5.86 0 0 -41.91 -7.07 0 0 29.75c-3.97,4.91 -6.99,7.07 -11.3,7.07 -5.52,0 -7.85,-3.36 -7.85,-11.21l0 -25.61 -7.16 0 0 26.56c0,10.69 3.97,16.39 12.85,16.39z"/>
 </g>
</svg>
